 <svg  version="1.0" id="svg" xmlns="http://www.w3.org/2000/svg"  viewBox="0 0 126.000000 113.000000"  preserveAspectRatio="xMidYMid meet">  <g transform="translate(0.000000,113.000000) scale(0.100000,-0.100000)" fill="#ffffff" > <path d="M593 1041 c-65 -17 -165 -89 -136 -98 10 -4 9 -12 -3 -35 -9 -17 -18 -54 -21 -84 -3 -30 -9 -54 -13 -54 -32 0 -149 -132 -153 -171 -2 -13 -13 -44 -26 -68 -12 -24 -20 -53 -17 -64 3 -11 -6 -42 -20 -69 -14 -28 -23 -56 -20 -63 2 -7 -2 -22 -10 -34 -14 -20 -13 -24 16 -61 17 -21 53 -59 81 -84 l51 -45 28 20 28 21 30 -22 c37 -28 34 -58 -4 -34 -13 9 -31 13 -41 10 -13 -5 -10 -10 18 -25 74 -39 142 -55 241 -56 53 0 99 3 102 6 10 10 -40 91 -78 128 -20 19 -36 41 -36 48 0 31 -60 4 -106 -47 -20 -22 -38 -39 -40 -37 -2 2 6 28 18 59 19 47 31 61 78 92 31 20 60 36 64 36 4 0 27 -16 50 -36 33 -27 53 -58 86 -130 23 -52 48 -94 54 -94 6 0 43 18 82 39 129 72 232 204 269 347 15 59 20 170 9 234 l-6 35 -81 1 c-60 1 -102 8 -157 27 -41 14 -76 24 -78 22 -2 -1 14 -13 35 -25 47 -28 132 -49 200 -50 70 0 78 -15 70 -134 -6 -92 -25 -155 -72 -246 -13 -25 -27 -54 -30 -65 -6 -18 -9 -17 -33 15 -15 19 -49 59 -76 87 l-48 53 11 44 c18 74 14 174 -10 223 -12 24 -29 48 -39 53 -10 5 -21 22 -24 37 -4 16 -18 45 -32 65 -13 21 -24 47 -24 58 0 26 54 54 91 46 22 -4 29 -2 29 10 0 42 -53 84 -105 84 -14 0 -39 7 -55 15 -37 19 -105 26 -147 16z m114 -27 c36 -10 15 -25 -25 -18 -21 3 -50 0 -67 -7 -27 -11 -28 -13 -8 -16 12 -2 27 -11 33 -19 7 -8 22 -14 34 -14 19 -1 19 -2 4 -11 -13 -7 -18 -22 -17 -52 l1 -42 13 29 c12 28 13 28 19 9 4 -12 13 -27 22 -34 12 -10 13 -9 8 7 -9 28 43 -33 69 -81 27 -50 29 -179 4 -237 -9 -21 -12 -38 -6 -38 13 0 47 75 55 123 4 20 10 37 15 37 17 0 31 -85 25 -147 -9 -85 -12 -91 -63 -115 -24 -11 -58 -37 -76 -58 l-32 -38 -35 24 c-45 32 -74 30 -130 -6 -60 -38 -79 -59 -95 -107 -10 -28 -18 -37 -32 -34 -10 2 -37 4 -60 4 -24 0 -43 3 -43 7 0 4 17 20 38 36 119 90 212 201 269 320 31 65 35 81 31 132 -3 31 -9 66 -13 77 -6 16 -1 14 23 -9 36 -33 38 -50 18 -118 -8 -26 -15 -65 -14 -86 0 -21 -5 -48 -11 -60 -6 -11 -11 -29 -11 -39 1 -17 2 -16 16 2 9 11 29 47 46 80 29 58 29 59 6 38 -35 -32 -38 -29 -16 16 11 22 22 64 25 95 3 32 10 53 16 49 5 -3 7 -29 5 -57 -5 -49 -5 -50 8 -21 17 39 18 126 1 149 -12 16 -13 13 -10 -20 l4 -39 -20 43 c-11 23 -21 42 -23 42 -2 0 -2 -21 0 -47 l2 -48 -19 49 c-22 53 -37 74 -28 39 7 -32 0 -29 -23 10 -16 25 -20 28 -20 12 -1 -19 -1 -19 -11 -2 -6 9 -7 27 -3 40 4 15 3 19 -4 12 -5 -5 -12 -19 -15 -30 -4 -15 -5 -14 -6 7 0 15 4 39 9 54 15 37 8 39 -29 8 -52 -44 -57 -62 -22 -82 43 -24 39 -32 -19 -32 -49 0 -50 1 -50 30 0 20 5 30 15 30 8 0 19 10 26 23 6 12 23 33 37 46 l27 24 -39 -22 c-34 -19 -38 -20 -26 -4 8 10 23 26 35 35 20 17 20 17 -5 11 -24 -5 -24 -5 -5 9 43 32 119 46 172 32z m143 -44 l35 -19 -51 -1 c-28 0 -66 -3 -84 -7 -24 -4 -31 -3 -26 5 4 7 28 13 54 14 44 1 44 2 10 5 -21 2 -38 8 -38 14 0 16 63 9 100 -11z m-100 -50 c13 -9 13 -11 0 -20 -19 -13 -34 -8 -38 13 -4 19 15 22 38 7z m-189 -47 c-15 -28 -20 -32 -21 -18 0 21 29 70 37 62 2 -3 -5 -22 -16 -44z m43 -135 c10 -14 16 -44 16 -80 0 -90 -51 -190 -154 -305 -50 -55 -193 -169 -202 -161 -3 3 51 66 121 139 142 150 195 228 203 298 5 50 5 50 -22 7 -16 -25 -16 -28 -2 -23 26 10 19 -7 -30 -72 -49 -66 -143 -151 -232 -210 -49 -32 -52 -36 -32 -41 l22 -5 -21 -25 -21 -25 -20 24 c-16 18 -19 32 -14 65 4 22 13 53 20 67 12 25 100 106 154 142 42 29 151 140 167 172 l16 30 -44 -36 c-64 -52 -200 -142 -206 -136 -2 3 22 32 55 65 42 42 70 61 95 66 33 6 62 26 38 26 -20 0 -125 -51 -158 -76 -47 -35 -41 -16 10 33 79 79 207 110 241 61z m-279 -209 c-4 -8 -20 -25 -37 -39 l-31 -24 7 29 c4 17 14 41 23 54 13 20 17 21 29 9 8 -8 12 -21 9 -29z m644 -279 c45 -66 49 -75 25 -66 -8 3 -12 2 -9 -4 4 -6 0 -17 -8 -25 -13 -13 -18 -11 -39 18 -14 17 -37 51 -51 74 l-27 43 -56 -25 -55 -25 6 33 c8 38 13 44 62 72 l38 22 37 -29 c20 -16 55 -55 77 -88z m-99 -9 c0 -15 -3 -50 -7 -76 l-6 -47 -32 38 -33 39 30 37 c36 45 48 48 48 9z m-270 -69 c-21 -36 -92 -107 -87 -87 24 89 31 104 51 107 34 6 47 -2 36 -20z m44 -64 c27 -38 20 -48 -34 -48 -27 0 -50 3 -50 8 0 11 49 62 60 62 5 0 16 -10 24 -22z"/> <path d="M779 608 c-15 -58 -53 -130 -89 -172 -26 -29 -27 -33 -10 -29 31 8 90 74 100 114 14 51 24 129 17 129 -4 0 -11 -19 -18 -42z"/> <path d="M524 619 c-10 -12 -17 -22 -14 -24 10 -5 -107 -98 -173 -137 -44 -27 -64 -44 -56 -49 9 -5 3 -18 -19 -45 -59 -71 -33 -67 51 7 126 113 195 185 217 229 23 45 22 49 -6 19z"/> <path d="M184 795 c-9 -23 4 -47 23 -43 10 2 19 11 21 20 2 12 -2 15 -20 11 -22 -4 -22 -4 -4 11 18 14 18 16 3 16 -10 0 -20 -7 -23 -15z"/> <path d="M1054 795 c15 -11 16 -15 5 -15 -8 0 -20 5 -27 12 -9 9 -12 7 -12 -10 0 -29 27 -39 47 -19 19 19 10 47 -14 47 -17 -1 -16 -2 1 -15z"/> <path d="M290 723 c-25 -8 -79 -15 -121 -16 l-77 -1 -6 -35 c-17 -102 -1 -227 40 -316 28 -62 31 -31 4 45 -12 31 -23 96 -26 150 -8 120 -2 130 82 134 53 3 154 36 154 50 0 3 -1 6 -2 5 -2 -1 -23 -8 -48 -16z"/> <path d="M150 646 c-13 -17 -6 -36 15 -36 19 0 26 27 11 39 -10 8 -17 7 -26 -3z"/> <path d="M1073 644 c-7 -19 11 -39 26 -30 16 10 13 33 -4 40 -9 3 -18 -1 -22 -10z"/> <path d="M145 560 c-3 -5 -2 -16 2 -24 11 -20 38 -3 30 18 -7 18 -23 21 -32 6z"/> <path d="M1080 560 c-13 -8 -13 -11 1 -25 13 -14 17 -14 27 -2 16 19 -7 40 -28 27z"/> <path d="M157 474 c-14 -14 -7 -35 11 -32 9 2 17 10 17 17 0 16 -18 25 -28 15z"/> <path d="M1067 474 c-14 -14 -7 -35 11 -32 9 2 17 10 17 17 0 16 -18 25 -28 15z"/> <path d="M1025 381 c-8 -15 3 -31 21 -31 9 0 14 7 12 17 -4 20 -24 28 -33 14z"/> <path d="M728 80 c6 -8 12 -22 12 -32 0 -20 8 -22 28 -9 11 6 6 14 -20 31 -18 13 -27 17 -20 10z"/> </g> </svg> 
